# xmcd
#
# Track frame offsets:
#	150
#	16729
#	34498
#
# Disc length: 688 seconds
#
# Revision: 0
# Processed by: cddbd v1.5.2PL0 Copyright (c) Steve Scherf et al.
# Submitted via: audiograbber 1.83.01
#
DISCID=1b02ae03
DTITLE=Münchener Freiheit - Nichts ist wie du
DYEAR=2007
DGENRE=Pop
TTITLE0=Nichts ist wie du\n
TTITLE1=Halt mich fest
TTITLE2=Nichts ist wie du (Fuerte Mix)
EXTD=
EXTT0=
EXTT1=
EXTT2=
PLAYORDER=
